<?xml version="1.0" encoding="UTF-8"?>
<svg width="219px" height="248px" viewBox="0 0 219 248" version="1.1" xmlns="http://www.w3.org/2000/svg" xmlns:xlink="http://www.w3.org/1999/xlink" style="background: #5E42A6;">
    <!-- Generator: Sketch 44.1 (41455) - http://www.bohemiancoding.com/sketch -->
    <title>Artboard 2 Copy</title>
    <desc>Created with Sketch.</desc>
    <defs></defs>
    <g id="Page-1" stroke="none" stroke-width="1" fill="none" fill-rule="evenodd">
        <g id="Artboard-2-Copy" fill="#FFFFFF">
            <path d="M115.264423,12 L114.060362,12.1525207 L113.013559,12.5494533 L110.367657,14.5492739 L105.522047,19.5938236 L102.669627,21.6931141 L99.4231158,23.1434813 L95.8241966,23.7384066 L92.1760162,23.489258 L90.231141,23.887138 L89.2743344,25.2920332 L88.7277231,25.6927552 L87.3834571,28.3367624 L84.6352433,31.4317002 L83.1394041,33.6787747 L74.5916159,49.5665011 L71.5952007,52.9134296 L68.1971163,55.2107128 L64.5972498,56.5606627 L60.9983307,57.0059094 L51.0579626,55.5612261 L50.359778,55.8634254 L48.4584801,58.01103 L46.8593815,58.8626826 L43.2604624,59.6584425 L41.4093732,59.5646565 L38.1126534,58.3624906 L36.7162841,58.3132293 L35.4648569,59.5106585 L32.1719264,64.7550956 L30.0233745,67.0012228 L22.8795343,78.6903681 L21.9824096,80.9374426 L21.5324263,83.9329104 L21.630949,87.2798389 L21.9284117,88.7804148 L22.5309156,88.6762082 L22.6265963,87.6815082 L22.4286036,86.1278816 L21.8791503,83.4819798 L22.5271263,83.5321885 L23.6269802,84.2805818 L24.1764335,84.4785744 L24.4284242,84.8802437 L24.8746181,87.4759369 L25.4240714,88.4734788 L26.2255154,89.5733328 L27.0724313,90.4685627 L27.770616,90.8200234 L28.7672106,91.0199107 L29.8699065,91.6224147 L30.7698731,92.4731199 L31.1222811,93.5720265 L31.5182664,94.4246265 L32.517703,95.7215257 L33.617557,96.7219097 L34.4152116,96.7219097 L33.9140723,96.4206577 L33.9140723,96.1175111 L34.2617436,95.8702571 L34.8159336,95.7669977 L35.3644395,95.5178491 L35.7661088,95.0195518 L36.3648235,93.9699065 L36.0711502,93.2660379 L35.4648569,92.3168099 L35.4648569,91.717148 L35.5671689,90.3160421 L35.4648569,89.7675361 L34.9144562,89.5202821 L32.1169811,90.722448 L31.7209957,90.5689801 L30.8693431,89.9200568 L30.3198898,89.7211168 L28.4242759,90.2724647 L28.4242759,89.7211168 L28.9235206,89.5240714 L29.7211752,88.8742008 L30.2213672,88.7216802 L30.7168225,88.8742008 L31.6717344,89.5771221 L32.1131917,89.7268008 L32.662645,89.6311201 L33.162837,89.2758701 L33.418617,88.6762082 L33.117365,87.7800309 L32.770641,87.6284576 L31.1715424,87.7800309 L31.1715424,87.3338369 L31.7702571,86.6811243 L31.8242551,85.5367457 L31.4727944,83.0869418 L31.7702571,82.1367665 L32.4191804,81.6365746 L33.0671563,81.3845839 L33.364619,81.0861739 L33.5673483,80.6901886 L33.9680703,80.4931433 L34.8651949,80.4391453 L36.1166222,78.4923754 L36.3648235,78.1939654 L36.5666055,77.8396628 L36.6206035,77.1916868 L36.6708121,77.0410608 L36.9228028,74.9957683 L37.4182581,74.1943243 L38.0226567,73.5463484 L38.5711627,72.6956431 L38.7691553,71.2935899 L39.220086,70.7450839 L40.1200526,70.2960479 L41.0702279,70.0961606 L42.4665971,70.5016192 L44.467365,69.451974 L45.9205742,68.1001294 L45.3682789,67.4512061 L46.0172022,67.0012228 L46.9133795,66.8989108 L47.7148235,67.3034221 L48.0615475,68.249808 L48.3590101,68.1001294 L49.0571947,67.2001628 L49.8586387,66.4025081 L50.507562,66.4555588 L51.1526959,65.7090602 L51.8006719,65.1548702 L52.5026459,65.0051916 L53.2008305,65.4532802 L52.9535765,65.9023162 L53.5987105,65.9023162 L54.0979551,65.6503255 L55.0936024,64.9028796 L56.3961856,64.3534263 L56.6936483,63.8541816 L56.4407103,62.905901 L60.8903347,66.6507095 L61.6396753,67.0012228 L62.4363826,66.8989108 L71.5307821,63.605033 L74.9752859,63.5519823 L76.5743844,62.857587 L77.9679117,61.5568984 L78.7229363,61.3570111 L79.4703823,62.1054044 L80.2178282,62.6595944 L81.0694808,62.2531884 L81.8178741,61.4621651 L83.2199274,59.5618145 L83.5164427,59.3609799 L83.9673733,59.5106585 L84.7631333,60.2135798 L85.9624572,60.6597738 L88.3090018,62.857587 L84.065896,63.360621 L82.1655454,62.857587 L80.8676989,63.7092396 L79.3178616,64.3107963 L78.619677,65.3604415 L77.9679117,66.6601828 L76.5203864,68.9565187 L76.1196645,69.3515566 L75.5711585,69.4027126 L75.0217052,69.1043026 L74.7195059,68.659056 L74.7725565,68.2081254 L75.2689592,67.8566647 L75.2689592,67.3034221 L70.6251315,65.3604415 L69.3225482,65.3121275 L63.4282405,67.3034221 L63.3287706,67.5563601 L63.0767799,68.6041107 L62.8778399,68.8570487 L62.5273266,68.90631 L62.2289166,69.0010433 L61.9276646,69.153564 L60.680974,70.4021492 L59.8833194,71.6043152 L59.1339788,73.0499457 L58.3827435,74.847037 L59.0316668,75.5509056 L59.3783908,75.8019489 L59.8245848,75.8976296 L60.0813121,76.3011936 L60.2793047,77.1537935 L60.3285661,78.0044988 L60.1305734,78.4004841 L60.0358401,78.7472081 L59.1339788,80.19947 L58.9321968,80.4448293 L58.8781988,81.3429013 L59.0316668,82.1945539 L59.2789208,82.9467365 L59.4816501,83.4421918 L59.7791128,83.9414364 L60.1305734,84.4416284 L60.5275061,84.7930891 L61.5269427,85.1436024 L61.576204,85.6437943 L61.3280027,86.6403889 L60.9272807,87.8368709 L59.0771388,88.9367248 L58.6299975,89.8376388 L58.9805108,90.787814 L59.8245848,90.7385527 L60.6762374,90.1853101 L61.0769594,89.6396461 L62.6760579,88.8865162 L63.4727652,88.7889408 L63.6717052,88.9367248 L64.0762165,89.3867081 L64.8700818,91.288006 L64.5224105,93.3332986 L63.8734872,95.6305818 L63.8242259,98.3333236 L63.7247559,98.3333236 L63.6262332,98.6838369 L63.6262332,99.0807696 L63.9767465,99.2787622 L64.3736792,99.3327602 L64.5764085,99.2787622 L64.6749311,99.0807696 L65.9235164,98.3333236 L66.7742217,98.9310909 L66.7742217,99.8272682 L66.3242384,100.381458 L65.7747851,99.8272682 L65.5275311,100.180623 L64.9771305,101.380895 L64.5726191,101.332581 L64.4267298,101.030381 L64.3253652,100.633449 L64.1747392,100.332197 L63.1753026,99.7287455 L62.7793173,99.3327602 L62.5273266,98.7795176 L62.4723813,98.3333236 L62.4240673,97.9809156 L61.9778733,97.8321843 L62.4240673,96.8772723 L63.3249812,95.5301644 L63.4235039,94.8329271 L63.0720432,93.9310659 L62.5235373,93.8799099 L61.920086,93.9812745 L61.3696853,93.6307612 L60.4687714,93.5322385 L59.0724021,93.7832819 L58.0237042,93.5322385 L58.2747475,91.935982 L58.0237042,91.935982 L57.8247642,92.9325766 L57.5225649,93.5814999 L57.2260496,94.1300058 L56.9285869,94.9276605 L57.3283616,94.6311451 L57.7290835,94.5307278 L58.0274935,94.7798765 L58.2804315,95.4818504 L57.6760329,95.6381604 L56.9778483,95.4818504 L56.3791336,95.6381604 L55.8296803,97.9856523 L55.1798097,98.7330982 L54.5280444,98.8287789 L54.2353184,98.1343836 L54.0865871,95.8371004 L54.1358484,94.9361865 L54.4825724,93.8874885 L55.581479,92.7876346 L56.030515,92.1425006 L55.882731,91.4907353 L55.882731,90.9374927 L56.8821676,90.6892914 L58.0274935,88.8410442 L59.1264001,88.5416868 L58.6299975,86.9909023 L58.1307529,86.194195 L57.4808822,85.4903264 L56.9323763,84.4918371 L56.6803856,82.7961105 L56.3336616,81.8970912 L55.5322177,81.2936399 L54.5858317,80.9904933 L53.8829104,81.0444913 L53.5371338,81.2936399 L53.3344045,81.6441532 L53.0814665,81.9454052 L52.5822219,82.0950839 L52.1350805,81.9994032 L51.3885819,81.6488899 L50.9376513,81.5494199 L50.1854687,81.7028879 L48.2889074,83.5539771 L47.0412695,84.5032051 L46.5903389,85.1019197 L45.9916242,86.251035 L45.6401636,87.5479342 L46.0408856,87.9496035 L47.7887155,87.9988649 L48.7426801,88.3493782 L48.6896294,88.4990568 L46.4918162,88.5985268 L44.8387196,89.0977715 L44.2390577,89.4482848 L41.6897838,93.7965445 L39.8898506,93.8950672 L39.33945,94.3905225 L39.33945,95.1417578 L39.9874259,95.4903764 L40.1873132,96.1383524 L40.2365746,96.791065 L40.4383566,97.1425257 L40.7358192,97.2950463 L41.1365412,97.345255 L42.3879685,98.3446916 L42.4836491,98.9434062 L42.3879685,99.1916075 L42.1861865,99.3412862 L42.0421918,99.7457975 L41.7854645,101.240689 L41.7362032,101.943611 L41.7362032,102.993256 L41.6869418,103.692388 L41.5372632,104.239947 L41.3354812,104.593302 L41.0834905,104.745823 L38.6327393,105.245067 L37.935502,105.245067 L37.4883607,104.943815 L36.7409148,103.942484 L36.0919915,103.398715 L35.8362115,102.695793 L35.7860028,102.04687 L35.9347342,101.745618 L35.9347342,101.196165 L34.7363576,97.7961856 L34.4891036,97.7961856 L34.1869043,98.5966822 L33.7861823,99.3990735 L33.2376763,100.051786 L32.6834864,100.29904 L30.7376638,98.6999416 L30.3862032,98.5966822 L29.5923379,97.7450296 L27.8454553,97.399253 L25.8948961,97.4485143 L24.6472582,97.8501836 L24.6472582,98.3494283 L24.9949295,99.0514022 L24.8954595,99.5478049 L24.6027335,99.7457975 L24.2503255,99.4473875 L23.9983349,98.7994116 L24.0978049,97.655033 L23.9452842,97.0023203 L24.4937902,96.6508597 L24.0485435,96.3496077 L22.4001836,96.0521451 L22.0979843,95.7499457 L21.8999917,95.0479718 L21.7465237,94.3488398 L21.6015817,94.0475878 L20.9043444,93.9983265 L20.6466697,93.8495952 L20.3994157,93.6013939 L20.3994157,93.1021492 L20.6930891,92.4532259 L21.5977923,90.1057341 L21.5977923,89.6064894 L21.2510684,89.2550288 L21.0985477,88.6553668 L20.8456097,88.4583215 L20.2468951,89.4084968 L19.4454511,91.3543193 L17.6483599,97.5962983 L17.3471079,98.8439362 L17.2021659,100.042313 L17.6483599,124.824551 L17.4996286,126.526909 L16.548506,130.972744 L16.4499833,132.569948 L16.6489233,137.714915 L16.7967073,138.566568 L16.9984893,139.314014 L17.1481679,139.665475 L17.6966739,139.864414 L17.7970912,139.419168 L17.6483599,138.215107 L17.9003506,136.616956 L17.9496119,135.170378 L17.9003506,132.120912 L18.2518112,131.523145 L19.0977798,131.617878 L22.1472456,133.022774 L23.5483516,134.017473 L24.5439988,135.666781 L24.9901928,138.215107 L24.9901928,140.41292 L26.4860321,142.367269 L27.134008,143.467123 L27.6844086,144.666447 L27.9392413,145.913137 L27.6844086,147.058463 L26.0853101,148.705876 L24.5402095,149.954461 L23.6392956,150.253819 L21.738945,151.756289 L19.9409064,152.754778 L19.5941825,152.552049 L19.4407145,151.60661 L19.5401845,150.805167 L19.9409064,149.854991 L20.0403764,149.155859 L19.9409064,148.360099 L19.2427218,146.459749 L18.2470745,141.012582 L17.9960312,140.661122 L17.8956139,140.561652 L17.8425632,140.364606 L17.7478299,140.166614 L17.4958392,140.062407 L17.3963693,140.214928 L17.3471079,140.567336 L17.3963693,140.918796 L17.4958392,141.07037 L17.6938319,141.774238 L19.5941825,155.66025 L19.4956598,158.506986 L18.9945205,161.405826 L18.2470745,164.15025 L16,170.144028 L16.0492613,171.195568 L16.6527126,171.794283 L18.9992572,172.243319 L19.9986938,172.795614 L24.7419915,176.794308 L25.2421835,176.596315 L24.8916701,175.396044 L23.9945455,174.347346 L22.8956389,173.645372 L21.9937776,173.496641 L22.494917,172.795614 L22.7431183,172.644988 L23.0936316,172.546465 L21.895255,171.298827 L21.8005217,170.647062 L22.241979,169.646678 L22.9449003,169.046069 L23.8420249,168.795025 L24.7419915,168.844287 L25.4941741,169.150275 L25.4941741,169.596469 L24.6472582,169.749937 L24.6472582,170.248235 L28.2423879,175.641403 L29.8405392,177.141032 L31.7408897,177.740694 L34.3905809,177.793744 L35.8362115,178.140468 L36.8365954,178.941912 L37.3860487,180.28902 L37.6873007,181.788649 L38.0340247,184.936637 L38.4802187,186.684467 L38.5342167,187.581592 L38.4802187,188.181254 L38.128758,189.181638 L38.0340247,189.982134 L38.3314874,192.97476 L38.8316793,195.972123 L39.5829146,198.320562 L39.6776479,199.618408 L38.88473,199.918713 L36.7333361,199.419468 L34.3394249,199.068955 L34.2380603,198.270353 L34.9390869,197.368492 L35.3852809,197.022715 L35.9347342,196.865458 L35.0887655,195.972123 L33.390197,195.469089 L31.7408897,195.722027 L30.9896545,197.070082 L30.8409231,198.869068 L30.5927218,200.567636 L30.5387238,202.216943 L30.9858651,203.962879 L31.5343711,204.711272 L32.1340331,204.86474 L32.7412737,204.514227 L33.290727,203.717519 L33.7861823,203.163329 L34.1869043,203.063859 L34.4388949,202.715241 L34.5383649,200.014394 L34.6870962,199.414732 L35.1863409,199.361681 L39.3801853,200.112916 L38.935886,201.910008 L38.3352767,203.609523 L37.8852934,205.459665 L37.7365621,207.702951 L38.1334947,209.45078 L38.7862073,211.153138 L39.1329313,212.897179 L38.583478,214.795635 L38.88473,215.247513 L38.583478,216.449679 L39.9343753,216.846611 L41.3809532,216.897767 L44.0789584,215.895489 L44.9798723,215.748652 L48.1780694,216.251686 L51.3251106,217.554269 L59.7667974,219.549353 L60.4147734,220.152804 L60.6175027,220.854778 L60.7131834,221.804954 L61.0096987,222.652817 L61.7116726,222.902913 L64.6133545,222.902913 L65.2120691,222.805338 L65.6137384,222.398932 L66.1631917,222.251148 L66.613175,221.854215 L67.3113597,221.705484 L68.1042776,222.450088 L68.7569902,222.547663 L69.3566522,222.34967 L69.5356982,220.907829 L70.0889408,220.057124 L71.7363534,218.661702 L72.4354854,217.8631 L72.83526,217.467115 L73.4841833,217.560901 L73.7863826,217.467115 L73.9843753,217.20944 L74.2354186,216.661881 L74.6854019,215.904015 L75.2320132,214.507645 L75.4849512,214.110713 L76.6340664,213.755463 L77.5832944,214.308705 L77.7803397,215.107307 L76.7316418,215.508029 L76.4389158,215.76002 L76.6861698,216.364419 L77.3853017,217.359119 L77.3350931,217.805313 L77.0376304,218.057303 L76.9874218,218.359503 L77.7367624,218.804749 L78.236007,218.955375 L79.8853142,218.804749 L80.2348802,219.102212 L80.7843335,220.403848 L81.2314748,220.706047 L81.8349261,220.403848 L81.9827101,219.70661 L81.8889241,218.904219 L81.7354561,218.304557 L81.4834655,217.805313 L81.0827435,217.409327 L80.6365495,217.111865 L80.1363576,216.954607 L80.4338202,216.111481 L80.8838035,216.160742 L81.4332568,216.512203 L82.0329188,216.512203 L82.4364828,216.210951 L82.4876388,216.008221 L82.3881688,215.715495 L81.4872548,210.467269 L81.1897922,209.466885 L80.6365495,209.0709 L78.4368417,208.467448 L77.5918204,207.765475 L75.9927218,205.968383 L75.1410692,205.616923 L74.6939279,205.769443 L74.3472039,206.071643 L74.0459519,206.422156 L73.7475419,206.619201 L73.3970286,206.670357 L72.400434,206.619201 L70.1543068,207.517273 L69.6550622,207.517273 L69.3064435,206.516889 L70.0046282,205.968383 L71.8026667,205.616923 L72.553902,205.21999 L73.2568233,204.576751 L74.2524706,203.220169 L73.3032426,201.723383 L72.698844,201.126563 L72.1493907,200.873625 L71.0050121,200.873625 L70.5057675,200.777944 L70.1040982,200.47764 L70.6042901,200.076918 L71.1546908,199.928186 L72.298122,199.9765 L72.298122,199.477256 L71.5999374,199.477256 L71.2484768,198.979906 L71.2484768,198.379296 L71.5506761,198.080886 L72.0499207,197.977627 L72.6003213,197.725636 L73.5467073,197.126922 L73.8972206,196.675991 L74.1482639,196.230745 L74.5006719,195.878337 L75.0501252,195.725816 L77.3966697,196.17201 L77.946123,196.120854 L78.5988357,195.923809 L79.0952383,195.572348 L79.2979676,195.074051 L79.3917536,193.927777 L79.6446916,193.328115 L79.9449962,192.824134 L80.0899382,192.028374 L79.9449962,190.874522 L79.4959603,190.428328 L78.9967156,190.229388 L77.4989817,187.683904 L77.0954177,187.234868 L77.0954177,186.734676 L77.6496077,186.185222 L77.4989817,185.48609 L77.0499457,184.834325 L76.5497538,184.388131 L75.7530465,183.888887 L75.7028378,183.3868 L75.9548285,182.786191 L76.0505091,181.986641 L75.9046198,181.438135 L75.4063225,180.38849 L75.2035932,179.587046 L75.7530465,179.288636 L77.0992071,179.040435 L77.6524497,178.635924 L78.0986437,177.784271 L78.298531,176.838832 L78.1488523,176.043072 L75.8515692,174.794487 L75.4517945,174.89301 L75.1003339,175.09195 L73.1545113,175.591194 L72.400434,175.641403 L71.7022494,175.189525 L72.349278,174.59081 L73.8470119,174.091566 L74.4466739,173.293911 L74.3017319,173.092129 L74.1994199,172.795614 L74.7526625,172.795614 L75.6952592,173.174547 L76.1945038,173.274017 L76.8926884,173.120549 L77.7936024,172.470679 L80.2964569,171.871964 L80.4413989,171.571659 L80.4413989,170.919894 L80.4963442,170.273813 L80.8468575,169.97635 L81.7439821,169.818145 L82.2924881,169.472369 L83.392342,168.022949 L85.4423713,166.374589 L86.0865579,165.572198 L82.2924881,165.572198 L81.4967282,165.373258 L81.0950588,164.823804 L80.7928595,164.076358 L80.3504549,163.224706 L78.3023203,161.126363 L77.7538144,160.8289 L74.9061305,160.775849 L74.0544779,160.378917 L74.0544779,160.028403 L74.1046866,159.827569 L74.1577373,159.630523 L74.2524706,159.329271 L75.2064352,159.779255 L79.3055463,159.779255 L79.6532176,159.978195 L81.0533762,161.225833 L83.500338,162.172219 L84.7034513,162.077485 L86.6975878,161.026893 L91.0439529,159.725257 L91.9931809,160.323971 L92.3446415,159.923249 L92.4952675,159.827569 L92.0443369,158.679401 L92.5445288,157.879851 L94.1928887,156.937255 L94.1928887,156.433274 L93.1479801,156.433274 L92.5928428,156.337593 L92.4971622,155.78814 L92.8505175,154.541449 L93.4984934,153.093924 L93.6434354,152.341741 L93.2436608,152.044278 L87.5482931,150.796641 L86.5488565,149.693945 L87.5037685,149.445743 L89.5443243,149.540477 L90.5939696,149.140702 L90.8952216,148.790189 L91.1434229,148.288102 L91.3982556,147.738649 L91.8946582,147.540656 L95.7417786,147.343611 L96.2419706,147.540656 L96.5886946,147.98685 L96.7421626,148.54104 L96.8416326,149.037443 L97.0396252,149.486479 L97.6373925,150.484021 L98.0390618,150.838323 L98.5392538,150.987055 L98.9409231,150.838323 L99.1427051,150.484021 L99.2876471,150.134455 L99.6381604,149.637105 L99.4941658,148.887764 L99.1919664,148.18579 L98.9930265,147.98685 L99.2876471,147.540656 L99.7376304,147.094462 L100.186666,146.790368 L100.385606,146.790368 L100.535285,146.292071 L101.484513,145.046328 L101.637981,144.441929 L101.687242,143.893423 L101.736504,142.645785 L101.687242,140.847746 L101.785765,139.951569 L102.781412,137.698811 L102.57963,137.199566 L101.880498,137.301878 L100.93127,137.748072 L101.633244,136.35265 L102.133436,135.101223 L102.278378,133.750326 L102.02544,131.956076 L101.426726,130.506656 L100.777802,129.559323 L100.526759,128.510625 L101.080949,126.857529 L102.02544,125.511368 L104.174939,123.758801 L105.174376,122.511164 L106.224021,120.163672 L106.521484,119.763897 L107.074727,119.65969 L107.422398,119.362228 L107.673441,118.759724 L107.824067,117.81239 L108.372573,118.263321 L109.37201,117.764076 L109.820098,118.066276 L110.215136,118.61194 L110.765537,119.010767 L111.31878,119.264652 L111.86918,119.264652 L110.721012,121.611197 L110.670804,122.507374 L111.31878,123.651753 L110.768379,124.651189 L110.069247,124.402988 L109.37201,123.651753 L108.818767,123.255767 L108.065637,123.557967 L106.722319,124.655926 L105.81951,124.750659 L106.671163,125.853355 L107.272719,126.849003 L107.916906,127.403193 L109.020549,127.204253 L109.92241,126.602696 L110.271029,126.55154 L111.921284,127.04889 L112.268008,127.447717 L112.571154,128.245372 L112.218746,128.394103 L111.569823,128.895242 L111.268571,129.245756 L111.569823,129.94394 L111.969598,131.294838 L112.373162,131.8945 L112.869564,132.092492 L113.566802,132.043231 L114.219514,131.741979 L114.6155,131.246524 L114.41656,130.046252 L113.916368,128.245372 L113.623642,126.597959 L114.920541,125.098331 L115.821455,123.552283 L116.818997,122.350117 L117.768225,122.70063 L118.218208,123.053038 L118.7184,123.146824 L119.117227,123.449023 L119.213855,124.402988 L119.012073,125.299165 L118.616088,125.700835 L117.614757,125.850513 L118.516618,127.497926 L119.91204,128.49831 L121.159678,128.245372 L121.714815,126.09682 L121.614398,123.899007 L121.817127,122.949779 L122.515312,121.953184 L124.365454,120.651548 L128.009845,115.404269 L128.459828,113.810855 L128.109315,112.363329 L128.307307,110.463926 L128.806552,108.81083 L129.759569,107.913705 L129.759569,107.462774 L127.312607,104.968446 L126.010972,102.719477 L125.41131,102.022239 L124.110621,101.274793 L122.809932,101.116589 L113.368809,102.617165 L110.119456,102.215495 L107.174197,100.517874 L105.972978,99.5231742 L105.773091,99.2692889 L105.725724,98.8202529 L105.523942,97.274205 L105.372369,96.8242217 L104.574714,96.2757157 L103.877477,96.7219097 L102.575841,98.5218429 L100.928428,99.7704282 L100.526759,100.720603 L100.378028,102.670215 L100.428236,105.369168 L99.9801477,105.765153 L98.7789291,105.815362 L99.2791211,105.2157 L99.7300517,104.266472 L99.9289917,103.215879 L99.6286871,102.368963 L99.7783657,101.715303 L100.080565,99.3697062 L100.428236,99.2171855 L102.426162,96.9691637 L105.12322,94.9191345 L105.822352,92.8747892 L105.624359,90.4732994 L104.876913,88.8742008 L103.925791,89.2256615 L102.877093,89.8793214 L101.225891,89.9787914 L98.5761998,89.4738628 L98.7751398,88.7804148 L98.8774518,88.5265295 L97.5767632,88.0765462 L96.9733119,88.2338035 L96.6758493,89.2303981 L96.5271179,89.6803814 L96.1254486,90.0811034 L95.6309407,90.3833027 L95.1809573,90.4827727 L94.9280194,90.3833027 L94.3757241,90.0318421 L94.0280528,89.9323721 L93.7305901,90.0848927 L93.6301728,90.4354061 L93.6301728,90.787814 L93.4823888,90.9403347 L92.8827268,91.089066 L91.5308822,91.935982 L85.5371046,93.7870712 L83.739066,93.4905559 L83.739066,92.9856272 L89.287597,92.18892 L91.0865829,90.8370754 L92.5360028,90.2876221 L93.7334321,89.2929221 L94.3330941,88.9907228 L94.98107,88.8382022 L95.3344253,88.6856815 L96.2334446,87.9865495 L97.2347759,87.5403556 L98.0769552,87.6881396 L98.8272431,88.2432769 L99.4780611,88.9367248 L100.174351,88.2432769 L100.777802,87.9903389 L102.575841,87.9903389 L103.07698,88.0898089 L104.026208,88.5360028 L104.326513,88.5360028 L104.872177,87.8880269 L104.773654,87.3916242 L104.376721,86.9871129 L104.026208,86.4916576 L103.07698,83.4421918 L102.77857,81.8970912 L102.62605,78.9963567 L102.183645,75.2989149 L101.880498,74.1043277 L102.030177,73.5510851 L102.282168,71.5541065 L102.481108,70.5991946 L102.736888,70.0014273 L103.835794,68.6012687 L103.084559,68.1995994 L99.8863617,68.104866 L99.0384985,67.7979301 L97.4896085,66.4025081 L96.1908146,65.7526375 L92.2906435,61.6090018 L91.4437276,61.2546991 L90.7464903,61.6090018 L90.0426217,62.1054044 L89.196653,63.2052583 L88.4454177,63.1095777 L89.196653,62.911585 L90.3400843,61.0633378 L91.1396336,60.6133545 L92.1390702,60.9155538 L93.4852308,62.2617144 L95.1383274,62.911585 L97.5852892,65.6086429 L100.93127,67.8566647 L101.630402,67.6094107 L102.232906,67.4597321 L104.130415,67.5089934 L104.574714,67.3564727 L104.926175,67.0552208 L105.273846,66.5588181 L105.773091,65.4115975 L106.772527,61.9112011 L107.219669,58.7670019 L107.868592,56.763392 L109.269698,53.8171855 L110.215136,52.6178616 L112.264218,51.1201277 L112.96335,50.0212211 L112.11454,42.4766589 L112.11454,38.6295384 L113.26176,35.38208 L111.764026,31.7869502 L109.767995,28.7384317 L108.66151,25.3905559 L109.863676,20.9447208 L113.114924,15.8499624 L115.156427,13.8463526 L117.358977,13.0496453 L116.410696,12.2519907 L115.264423,12 Z M137.307921,43.0156915 L132.80714,43.5177781 L132.406418,43.6702988 L131.613501,44.3144854 L131.00626,44.5626868 L129.358847,44.6659461 L128.055317,45.5621234 L126.759365,47.1650113 L125.858451,47.5609966 L125.858451,48.0081379 L126.506427,48.7603205 L127.154403,48.8550538 L128.699503,48.5547492 L129.298218,48.9507345 L130.403756,50.6521451 L130.848055,51.0490777 L132.448101,50.5536224 L133.349962,50.1026918 L133.996044,49.6034471 L134.645914,48.6523245 L134.947166,47.5534179 L134.848644,46.6032426 L134.195931,46.0547367 L137.494546,44.6536307 L138.042104,44.7521534 L138.344303,44.3969034 L138.943018,44.4963734 L139.347529,44.3969034 L139.207324,43.5177781 L138.856811,43.1653702 L138.406827,43.0156915 L137.307921,43.0156915 Z M48.1572281,69.7949086 L47.5575661,70.5925632 L46.6566522,69.9929013 L45.3104916,72.7894291 L44.5118897,73.8400217 L43.665921,73.5378224 L42.5168058,74.1857983 L40.1655246,74.5836783 L39.0173566,75.028925 L38.7691553,75.028925 L38.418642,74.980611 L38.1164427,75.028925 L37.9686587,75.2818629 L38.0226567,76.4755029 L38.1164427,77.0789542 L38.2699107,77.0296928 L37.91845,77.7771388 L37.1245848,78.8267841 L36.9180661,79.5249687 L37.3235247,79.8224313 L37.8237167,79.9711627 L38.319172,80.0251607 L38.819364,79.9711627 L37.8237167,81.2727986 L35.0262415,81.6697312 L33.9225983,82.5204365 L34.0220683,82.8226358 L34.1698523,83.5160838 L34.2210083,84.2190051 L34.0220683,84.5249937 L33.6213463,84.6187797 L33.273675,84.8707704 L32.9733703,85.1691804 L32.7744303,85.5196937 L32.6209624,86.3713463 L33.0216843,86.4206076 L34.2712169,85.921363 L34.5269969,85.969677 L35.4762249,86.4746056 L36.4718721,87.5233036 L36.9180661,88.1229655 L37.9686587,90.5225607 L38.3722227,90.722448 L39.4720766,90.1189967 L42.6693264,89.2682915 L42.8682664,88.0197062 L44.5204157,86.6735456 L45.069869,85.969677 L45.5700609,85.020449 L46.1697229,83.3711418 L46.7191762,82.5706452 L46.4207662,82.2674985 L46.1242509,82.0704532 L46.4747642,82.0704532 L46.7693849,82.0211919 L47.0242175,81.8677239 L47.2733662,81.5162633 L46.5751815,81.2178533 L46.2237209,80.4675653 L45.9300476,78.0708121 L45.7765796,77.7146148 L45.5776396,77.3688382 L45.4791169,76.8676989 L45.6780569,76.1193056 L45.8267882,75.8682622 L46.7769635,75.0706076 L47.0782155,75.2686003 L47.3756782,75.6191136 L47.5784075,76.1704616 L47.5784075,77.0211668 L47.8758701,76.7720182 L48.0785994,76.4177155 L48.3722728,75.5205909 L48.8715174,73.1209957 L48.9700401,72.9760538 L48.8715174,72.3773391 L48.4707954,71.3760078 L48.3722728,71.0766505 L48.4707954,70.5262499 L48.8506761,69.6423879 L49.1074034,69.0379893 L48.6062641,68.8399967 L48.1572281,69.7949086 Z M155.588611,87.6142476 L152.18579,87.9657082 L151.739596,88.3673775 L151.892117,89.3668141 L152.392309,90.1635214 L153.140702,90.6135047 L153.93362,90.7129747 L154.58728,90.4609841 L155.040105,89.9153201 L155.481562,89.0646148 L156.031963,88.3171689 L156.734884,87.9657082 L156.985928,87.6142476 L157.081608,87.5147776 L157.284338,87.5147776 L157.284338,86.9662716 L155.588611,87.6142476 Z M177.849048,131.8945 L171.752959,137.088728 L167.959836,139.439062 L165.910755,141.185944 L165.21257,142.938511 L165.861493,143.538173 L167.005872,143.339233 L170.005129,142.240326 L170.856782,142.187276 L171.555914,142.591787 L172.15747,143.592171 L173.108593,147.383399 L173.256377,148.383783 L173.256377,150.878111 L174.906631,158.572352 L174.810951,160.119347 L173.909089,162.365475 L173.558576,163.812052 L172.211468,163.263546 L171.608017,162.762407 L171.356974,162.118221 L171.509494,161.969489 L172.758079,162.365475 L172.406619,161.46835 L171.856218,160.868688 L171.208242,160.671643 L170.609528,160.919844 L170.510058,162.063275 L169.609144,163.009661 L168.463818,163.562904 L167.665216,163.365858 L168.166355,162.365475 L169.563672,161.018367 L169.864924,160.215975 L170.15765,159.018546 L170.859624,158.920023 L172.307149,159.415479 L173.305638,157.919639 L173.210905,155.217845 L172.511773,152.322794 L171.758643,150.277502 L171.464022,149.723312 L171.258451,149.524372 L171.112562,149.226909 L170.915516,148.322206 L170.96383,147.772753 L171.112562,146.971309 L171.112562,146.277861 L170.707103,145.974714 L169.960604,145.573045 L168.558551,144.074364 L167.861314,144.025102 L167.56764,145.375999 L168.514026,147.476237 L169.311681,149.773521 L168.666547,151.769552 L167.963626,152.168379 L166.568204,152.565312 L165.964753,153.16971 L165.314882,154.766914 L165.018367,155.763509 L164.870583,156.564953 L164.968158,156.814101 L165.314882,157.713121 L165.414352,158.216155 L165.262779,158.362044 L163.613471,162.010225 L163.115174,162.655358 L162.416989,163.303334 L162.766555,162.110642 L163.018546,161.703289 L163.018546,161.353723 L162.722978,160.456598 L161.771855,159.011915 L161.121985,158.358255 L160.819785,158.709715 L160.420958,158.858447 L158.623867,159.011915 L158.071572,158.91055 L157.573274,158.358255 L157.871684,157.912061 L158.568922,157.610809 L161.771855,157.011147 L161.821117,156.507166 L161.518917,155.36184 L161.121985,154.218408 L160.865257,153.664218 L160.117812,153.568538 L159.419627,153.921893 L158.820912,154.422085 L158.26767,154.668392 L156.3209,154.872068 L155.672924,154.668392 L155.672924,154.119886 L156.42037,154.119886 L156.8713,153.718216 L157.569485,152.667624 L158.167252,152.41658 L159.419627,152.77183 L160.023078,152.667624 L160.573479,151.267465 L159.81656,149.32259 L157.871684,145.822193 L158.272406,145.223479 L158.766914,144.92128 L160.023078,144.822757 L159.868663,145.525678 L159.77014,145.771985 L160.420958,146.12534 L161.072723,146.024923 L161.320925,145.577781 L160.869994,144.830336 L161.221455,144.080048 L162.324151,142.73294 L162.468145,142.029071 L162.022899,141.42562 L161.225244,141.579088 L159.776772,142.475265 L156.978349,143.326918 L155.329042,143.424493 L154.581596,142.724414 L148.432456,141.778028 L147.384705,142.029071 L142.289947,139.583057 L142.64046,140.830694 L143.538532,141.633086 L146.734834,142.825778 L149.289792,143.024718 L150.434171,143.525858 L151.733912,145.870507 L151.536867,148.672719 L150.434171,150.569281 L149.090852,150.268029 L148.238252,151.217256 L147.338286,151.618926 L146.342638,151.466405 L145.343202,150.763484 L145.59614,151.317674 L146.293377,152.313321 L146.445898,152.861827 L146.392847,153.308021 L146.191065,154.259144 L146.139909,154.809544 L145.942864,155.85919 L145.491933,156.511902 L144.892271,156.862415 L143.540427,157.158931 L142.199003,158.110053 L141.551027,158.358255 L140.100659,158.358255 L139.451736,158.209523 L139.099328,157.807854 L138.550822,158.308046 L140.199182,159.754624 L139.207324,160.358075 L138.053472,160.002825 L137.05972,159.056439 L136.410796,157.854273 L136.762257,157.557758 L137.161084,157.407132 L137.559912,157.407132 L138.008948,157.457341 L138.008948,156.961885 L136.660892,157.209139 L134.162774,158.209523 L132.864928,158.407516 L126.568004,157.457341 L126.568004,157.903535 L127.221663,158.258785 L129.31527,158.407516 L129.965141,158.753293 L130.262603,159.15212 L130.512699,159.70631 L130.914369,160.407337 L131.864544,161.006999 L134.365504,162.055697 L135.01348,163.25502 L128.763922,162.70462 L128.763922,163.25502 L133.10934,164.447713 L135.058952,165.600618 L136.805834,167.803168 L137.356235,169.150275 L137.455705,170.501173 L137.054983,171.49682 L136.009127,171.902279 L135.456832,171.902279 L135.055162,172.100271 L134.802224,172.600463 L134.750121,173.554428 L134.955692,173.950413 L135.403781,173.802629 L136.100071,173.303385 L137.349604,173.396223 L137.952108,173.751473 L138.445668,174.351135 L138.947755,175.249207 L139.748251,177.744483 L140.041925,179.343582 L139.89793,180.044608 L140.392438,180.446277 L140.448331,181.294141 L140.041925,182.143899 L139.200693,182.545568 L138.748815,182.644091 L138.247675,182.893239 L137.802429,183.247542 L137.451916,183.692789 L137.051194,183.991199 L136.450584,184.044249 L135.403781,183.946674 L135.403781,184.444971 L135.952287,185.994808 L136.204278,186.297955 L136.80394,186.297955 L137.103297,185.846077 L137.302237,185.247362 L137.55328,184.842851 L137.95495,184.791695 L138.553664,184.791695 L139.105959,184.99253 L139.405317,185.343043 L139.356055,186.04407 L138.856811,186.297955 L138.30641,186.345322 L137.95495,186.546156 L138.30641,187.189396 L140.506118,189.238478 L141.203355,189.644884 L141.455346,190.039922 L141.356823,191.732806 L141.455346,192.139212 L142.406469,192.089951 L142.851715,191.933641 L143.257174,191.636178 L143.001394,192.585406 L142.504044,193.036337 L141.900593,193.036337 L141.356823,192.585406 L141.60313,194.486704 L142.252053,195.486141 L143.25149,195.831917 L144.652596,195.886863 L143.853046,195.434985 L143.853046,194.939529 L146.599366,194.939529 L147.147872,194.742484 L148.247726,194.139033 L148.747918,194.039563 L151.490447,195.287201 L152.044637,194.988791 L152.742822,195.434985 L155.741132,196.188115 L157.188657,196.833248 L157.736216,196.881562 L158.287564,196.38516 L158.837964,195.634872 L159.490677,195.03521 L160.387802,195.03521 L160.986516,195.584663 L161.039567,196.38516 L160.691896,197.18092 L160.089392,197.831738 L160.737367,198.72981 L162.984442,198.580131 L163.832305,199.277368 L163.932723,199.831558 L163.679785,200.129968 L160.234334,200.782681 L161.234717,202.525774 L163.679785,204.377811 L164.580699,205.975962 L162.482355,205.526926 L158.283774,203.582998 L156.138064,203.133962 L156.737726,203.881408 L157.38665,204.485807 L158.136938,204.884634 L160.634108,205.034313 L160.931571,205.186833 L161.481024,205.831967 L161.683753,205.98733 L162.434989,206.133219 L165.083733,207.386541 L165.531821,208.079042 L166.279267,210.17928 L166.683778,210.72968 L166.683778,211.128508 L165.88044,211.925215 L165.332881,212.227414 L165.083733,211.821956 L164.935001,211.727222 L164.036929,212.672661 L163.585051,212.97486 L163.13791,212.776868 L162.340255,211.821956 L161.791749,211.623016 L161.39008,211.776484 L159.84119,212.97486 L159.84119,213.475052 L160.638845,213.826513 L161.039567,214.529434 L161.192087,215.474873 L161.192087,216.772719 L161.337029,218.119827 L161.787013,218.820854 L162.386675,219.321046 L163.085807,220.119648 L163.341587,220.663417 L163.341587,221.019614 L163.287589,221.366338 L163.386111,221.919581 L163.585051,222.515454 L163.731888,222.817653 L165.583925,224.713267 L165.990331,225.511869 L166.236637,225.858593 L166.68662,226.109636 L166.282109,227.262541 L166.431788,227.957883 L166.981241,228.365237 L167.782685,228.510179 L166.683778,230.258956 L166.184534,231.356915 L166.133378,232.76181 L166.426104,233.60399 L167.731529,236.204419 L168.282877,237.002074 L168.479922,237.952249 L169.332522,239 L170.124493,238.897688 L170.225858,236.451673 L169.778716,232.555292 L169.778716,230.357479 L170.32817,229.406356 L170.728892,229.101315 L171.77759,227.804415 L172.179259,227.506953 L172.375357,226.951815 L173.826671,223.908981 L174.430123,223.258163 L177.921993,220.359323 L177.921993,219.913129 L176.728353,218.514865 L175.62471,216.817244 L175.025995,216.269685 L174.276655,216.269685 L173.522577,216.519781 L172.775131,216.615462 L172.128103,216.269685 L170.823625,215.0211 L170.475954,214.718901 L170.425745,214.416701 L169.877239,213.170011 L169.525778,212.772131 L168.525394,213.218325 L168.180565,213.268534 L168.37761,213.920299 L168.478028,214.169447 L167.976888,214.571117 L167.377226,214.517119 L166.823984,214.070925 L166.53031,213.323479 L166.625991,212.323095 L166.973662,211.674172 L167.274914,210.876517 L167.126183,209.574881 L167.422698,209.475411 L167.575219,209.327627 L167.6709,209.178896 L167.868892,209.031112 L167.773212,208.975219 L167.674689,208.975219 L167.626375,208.873854 L167.626375,208.575444 L168.973483,208.822698 L171.121088,210.87178 L172.521246,211.476179 L173.418371,211.277239 L174.764531,210.226646 L175.367983,209.97655 L176.317211,209.921605 L177.115813,209.626037 L177.667161,208.921221 L177.716422,207.625269 L176.219635,204.327602 L175.921225,204.175081 L176.322895,203.823621 L177.120549,203.377427 L177.471063,203.124489 L177.764736,202.975757 L178.02241,202.6764 L178.26777,201.971584 L177.917256,200.37817 L176.421417,199.874188 L173.074489,199.576726 L171.923479,198.680548 L171.724539,198.379296 L171.824956,197.67448 L172.075999,197.427226 L172.373462,197.328704 L172.575244,196.97819 L173.371951,196.42779 L174.165817,196.675991 L174.617695,197.625219 L174.320232,199.122006 L174.666009,199.423258 L175.016522,199.477256 L175.367983,199.224318 L175.665445,198.624656 L175.413455,197.4187 L175.913647,196.023279 L176.707512,194.824902 L177.706949,194.172189 L178.354924,193.526108 L186.696194,191.578391 L188.795485,190.081604 L189.048423,189.882664 L189.650926,189.131429 L189.103368,187.283182 L188.900639,186.288482 L188.845693,185.090105 L188.448761,184.091616 L187.549741,182.991762 L185.849278,181.544237 L185.206039,181.243932 L182.755288,181.045939 L182.057103,180.793001 L180.106544,179.09917 L179.058793,175.401728 L181.055772,171.258092 L184.354386,167.811694 L187.256068,166.158597 L188.052775,166.158597 L188.552967,166.460796 L188.998214,166.861518 L189.649032,167.108772 L190.548998,166.80752 L190.944984,165.955868 L191.201711,165.108004 L192.69755,164.060254 L194.291912,160.961527 L195.143565,159.861673 L194.792104,159.10949 L194.642426,158.762766 L194.594112,158.407516 L194.642426,157.961322 L194.899153,156.758209 L194.949361,155.259528 L195.043147,154.308405 L195.193773,153.611168 L194.693582,152.763304 L194.142234,151.358409 L193.696987,149.813309 L193.498047,148.462411 L193.242267,147.567181 L192.69755,146.46638 L191.597696,144.86444 L191.597696,144.318776 L192.095046,143.516384 L193.192058,140.670595 L193.742459,139.472219 L195.390819,137.223249 L195.944061,136.12529 L193.899716,134.372723 L192.750601,133.874426 L191.355179,132.625841 L190.601102,132.225119 L187.749629,132.225119 L184.308914,130.229088 L181.045351,130.097408 L177.849048,131.8945 Z M112.660204,139.922202 L112.260429,140.873324 L112.112645,142.623049 L112.660204,143.37239 L113.458806,143.722903 L114.210988,144.272356 L114.759494,145.47168 L114.808756,146.670057 L114.51224,147.768963 L113.963734,148.669877 L113.264602,149.218383 L112.710412,149.519635 L112.264218,150.119297 L112.067173,151.565875 L112.41295,154.167252 L113.562065,155.763509 L114.958434,156.158547 L116.264807,154.965854 L116.659845,153.764636 L116.612478,151.415249 L116.813313,150.168559 L117.859169,148.7684 L118.407675,147.717807 L118.310099,147.217615 L118.015479,147.664757 L117.665913,148.417887 L117.164773,148.715349 L116.467536,147.765174 L116.113233,146.962783 L116.057341,146.215337 L116.207019,145.466943 L116.556585,144.768759 L115.560938,144.465612 L114.665708,143.669852 L114.060362,142.418425 L113.761005,139.472219 L113.264602,139.32254 L112.660204,139.922202 Z M103.826321,154.301774 L103.37539,155.700985 L103.37539,155.952976 L101.282731,156.349908 L101.134947,156.706106 L101.426726,157.003568 L104.130415,157.452604 L104.42693,157.254611 L104.674184,156.007921 L104.476191,154.904278 L104.123783,154.200409 L103.826321,154.301774 Z M194.899153,161.093206 L194.244546,162.844825 L193.801194,163.698372 L193.400472,164.191933 L192.899332,164.638127 L192.401035,165.241578 L191.952946,166.142492 L191.952946,167.746328 L192.552608,169.641941 L193.402366,170.943577 L194.25023,170.691587 L194.597901,170.182869 L195.245877,169.633415 L195.999007,169.183432 L196.596774,168.984492 L197.994091,167.39013 L197.994091,167.084142 L195.696807,161.291199 L195.645651,160.989947 L195.597337,160.791007 L195.448606,160.391232 L194.899153,161.093206 Z M201.187551,162.60136 L200.835143,163.051344 L200.489366,164.700651 L200.489366,164.952642 L200.835143,165.750296 L201.09187,166.101757 L201.341019,166.248594 L201.49354,166.402062 L201.543748,166.704261 L201.740794,166.951515 L201.995626,166.799942 L202.436136,166.295013 L202.539396,166.043022 L202.539396,165.949236 L202.335719,165.548514 L202.335719,164.147408 L202.235302,163.201022 L201.938786,162.64778 L201.539012,162.449787 L201.187551,162.60136 Z M103.426546,166.307328 L103.576225,167.760538 L103.426546,168.308096 L102.729309,168.360199 L102.729309,168.109156 L102.472582,167.113509 L102.472582,166.914569 L102.177014,166.810362 L101.129263,166.914569 L100.129826,167.26603 L98.3810492,168.562929 L93.2341875,170.310759 L89.287597,173.008764 L87.2394625,173.760946 L85.3419539,172.710354 L84.9914406,171.960066 L84.9914406,171.361351 L84.841762,171.008943 L84.1435773,170.859265 L81.9950255,171.305459 L80.5001335,173.207704 L79.9999416,173.509903 L79.5499583,173.657687 L79.2032343,173.959886 L78.9048243,174.662808 L80.4006636,175.013321 L84.296098,178.51277 L83.2483474,178.810233 L82.1484934,178.115838 L81.0031675,177.117348 L79.9544696,176.615262 L79.9544696,177.066192 L81.3015775,178.761919 L81.8500835,179.009173 L83.395184,179.207166 L84.1492613,179.656201 L84.549036,180.453856 L83.50318,180.507854 L83.1526667,180.453856 L85.3504799,181.408768 L84.9488106,182.206423 L84.301782,182.459361 L83.5533887,182.561673 L82.9006761,182.809874 L83.8546407,184.058459 L84.4031466,184.557704 L84.9544946,184.754749 L86.0988732,184.653385 L86.7023245,184.701699 L87.1039938,185.007687 L87.0083132,187.405388 L87.1039938,187.801373 L87.4526125,188.998802 L87.5520825,189.750985 L87.4526125,190.147918 L87.1039938,190.795893 L87.0083132,191.246824 L87.1039938,191.642809 L87.4526125,192.246261 L87.5520825,192.643193 L87.7500751,192.998443 L88.1981638,193.394429 L88.6974084,193.692839 L90.2955596,194.093561 L90.8990109,194.445021 L90.9501669,194.993527 L90.7010183,195.645293 L90.6024956,196.394633 L90.7010183,197.142079 L91.2514189,198.690969 L91.2997329,199.295368 L91.2002629,199.59283 L91.1017403,199.543569 L91.1017403,199.939554 L91.0524789,200.240806 L91.1528963,200.439746 L92.5473708,200.691737 L92.7463108,200.59132 L92.8988315,199.444099 L91.5488816,197.344808 L91.4048869,196.242113 L91.8993949,195.642451 L92.3995868,195.841391 L93.2957641,196.742304 L93.9484768,196.840827 L94.4486687,196.685464 L94.890126,196.436316 L95.4945247,196.237376 L96.2467073,196.538628 L96.7942659,197.435752 L97.2963526,198.585815 L97.9935899,199.579568 L97.4450839,200.580899 L94.3956181,202.927443 L95.0966447,203.277009 L96.5924839,202.876287 L97.3948752,202.876287 L98.0390618,203.277009 L99.1872298,204.229079 L99.7878391,204.675273 L99.7878391,203.179434 L100.089091,202.625244 L101.235364,202.729451 L104.333144,204.724535 L104.880703,204.774743 L105.878245,204.678115 L106.323491,204.774743 L106.674005,205.025787 L106.976204,205.328933 L107.374084,205.574293 L108.223842,205.822494 L110.871638,206.075432 L112.418634,206.922348 L113.268392,207.020871 L113.965629,206.322686 L114.462032,205.625449 L115.1659,205.121467 L115.917135,204.774743 L116.562269,204.624117 L118.358413,204.624117 L119.908251,204.719798 L120.40939,204.624117 L121.009999,204.124873 L121.358618,203.423846 L121.610608,202.620507 L121.963016,201.774539 L122.961506,200.471956 L123.106448,200.121442 L123.159498,198.720336 L123.255179,198.17183 L123.857683,196.771672 L124.110621,195.568559 L124.209144,194.172189 L124.110621,192.671613 L123.807474,191.621968 L122.758776,189.924347 L122.511522,189.073642 L122.813722,187.826004 L123.456961,187.627064 L124.156093,188.077047 L124.655338,188.82544 L124.953748,188.82544 L124.706494,187.67822 L123.705162,184.686541 L123.453172,184.082143 L119.55679,178.38867 L118.957128,177.835427 L116.258175,177.236712 L115.459573,177.036825 L115.161164,177.736904 L115.213267,177.985106 L115.414101,178.338461 L114.808756,178.68708 L114.164569,178.68708 L113.812161,178.240886 L114.012996,177.342814 L114.45919,176.943039 L115.161164,176.794308 L117.907483,177.041562 L119.756677,176.240118 L120.904845,175.495514 L121.254411,175.095739 L121.350092,174.545338 L121.099048,173.596111 L120.250238,172.744458 L120.156452,172.591937 L119.952775,172.339947 L119.8552,171.794283 L119.804044,171.191779 L119.706469,170.744637 L117.854432,167.64591 L116.706264,166.349958 L115.959765,166.398272 L115.959765,166.894675 L116.207019,168.646294 L116.207019,169.845618 L115.607357,169.190063 L115.409365,168.893548 L115.657566,170.092872 L116.057341,171.338615 L116.207019,172.440364 L115.711564,173.240861 L115.459573,172.938661 L114.909173,172.389208 L114.408034,172.140059 L114.309511,172.736879 L114.45919,173.092129 L114.759494,173.390539 L115.161164,173.640635 L115.507887,173.745789 L115.711564,173.991148 L115.912399,174.488498 L116.007132,174.99248 L115.809139,175.189525 L114.314248,175.635719 L111.760237,176.983774 L111.31499,176.884304 L110.516388,178.433194 L109.114335,178.489087 L108.467307,177.339024 L109.965988,175.189525 L110.367657,174.99248 L110.765537,174.99248 L111.116998,174.843748 L111.31878,174.23935 L111.220257,173.844312 L110.620595,173.34412 L110.472811,173.041921 L110.670804,172.191215 L111.116998,171.842597 L111.720449,171.842597 L112.367478,172.090798 L111.169101,171.24104 L110.521125,170.992839 L109.773679,170.893369 L109.421271,170.695376 L109.071705,170.248235 L108.573408,169.397529 L107.970904,168.646294 L105.225532,166.744996 L103.976947,166.158597 L103.426546,166.307328 Z M27.0354854,177.050088 L26.6347634,178.048577 L26.9369627,179.546311 L28.1836533,182.843031 L29.0855146,184.535915 L30.1342125,185.640506 L31.1345964,185.238836 L30.7831358,184.639175 L30.5311451,183.342275 L30.2336825,182.594829 L30.1342125,181.893803 L30.6344045,180.342071 L30.6344045,179.546311 L30.0849512,178.941912 L29.2835072,179.089696 L28.6345839,178.734446 L28.3863826,176.699574 L27.0354854,177.050088 Z M298.117745,187.083294 L298.217215,187.329601 L298.217215,187.083294 L298.117745,186.834146 L298.117745,187.083294 Z M127.268083,200.815838 L125.916238,204.261289 L125.66709,206.211848 L123.420962,209.455517 L122.471734,210.157491 L120.26729,212.757921 L119.415637,214.004611 L118.867131,215.652024 L119.217645,215.948539 L119.568158,216.053693 L119.916777,215.948539 L120.26729,215.652024 L120.416969,216.407996 L120.516439,217.102391 L119.516055,217.457641 L119.318062,217.354382 L118.966601,217.002921 L118.7184,217.354382 L118.367887,218.508234 L117.717069,219.499144 L117.216877,220.102596 L116.621004,220.350797 L115.665145,220.403848 L116.867311,221.449704 L117.417711,222.053155 L117.812749,222.85081 L118.814081,226.894028 L119.312378,227.549583 L120.265395,227.498427 L120.812954,227.192438 L121.217465,226.350259 L125.061744,213.607679 L127.064406,209.410045 L127.816589,207.112762 L129.714097,198.567816 L128.813183,198.167094 L127.268083,200.815838 Z M80.6488649,203.559315 L77.1579417,205.211464 L77.1579417,205.707867 L77.801181,206.107641 L78.4510517,206.013855 L79.0990276,205.75997 L79.8512102,205.707867 L79.6475336,206.261109 L78.901035,206.860771 L78.7523036,207.162023 L78.9502963,207.807157 L79.3500709,207.963467 L79.8512102,208.059148 L80.2519322,208.3604 L80.8013855,208.409661 L83.895376,208.112198 L83.895376,208.608601 L83.395184,209.261314 L83.6973834,209.80982 L85.3466906,210.955146 L85.6432059,211.310396 L85.3912153,211.45818 L85.2472206,211.65712 L85.3912153,212.10805 L85.6432059,212.608242 L85.7957266,212.855496 L84.9942826,213.054436 L84.046002,212.260571 L83.0948794,211.160717 L82.1939654,210.558213 L82.1939654,210.963672 L82.4506928,210.963672 L82.2981721,213.20601 L83.0948794,215.003101 L84.4400926,216.102007 L85.9908772,216.202425 L86.3915992,215.948539 L86.9410525,215.400033 L87.3455638,215.256986 L87.7424965,215.3053 L89.5443243,215.954223 L91.4408856,217.60732 L91.4408856,218.052567 L90.339137,217.558059 L89.0896044,216.656197 L87.8372298,216.102007 L86.7923212,216.656197 L86.7923212,217.102391 L87.4402971,217.602583 L89.188127,218.203193 L89.838945,218.754541 L90.3865036,218.955375 L91.1396336,218.508234 L91.9363409,217.904783 L92.5360028,217.60732 L93.6794341,217.655634 L94.2336241,217.50785 L94.2336241,216.858927 L92.6847342,212.109945 L92.1343335,211.011986 L91.1396336,209.463096 L90.1383023,208.264719 L88.8878224,207.467065 L87.1399925,207.16676 L85.8923546,206.464786 L83.54581,203.666363 L82.0499708,203.311113 L80.6488649,203.559315 Z M181.753956,204.76527 L181.309657,205.013471 L181.157136,205.509874 L181.360813,206.211848 L181.705642,206.714882 L183.007278,207.660321 L183.007278,208.112198 L182.656765,208.3604 L182.456878,208.757332 L182.456878,209.304891 L182.656765,210.009707 L182.156573,210.310959 L180.860621,210.859465 L180.458952,210.908726 L179.854553,210.710734 L178.906272,210.062758 L178.255454,210.013496 L178.558601,210.963672 L178.255454,211.45818 L177.75621,211.160717 L177.260755,211.409866 L176.359841,212.408355 L176.563517,212.608242 L176.963292,213.157696 L177.160337,213.353794 L176.710354,213.607679 L176.368367,214.004611 L176.215846,214.553117 L176.368367,215.256986 L175.815124,215.256986 L175.815124,215.706969 L178.36345,216.954607 L179.508776,217.1526 L180.263801,216.705459 L182.359302,213.805671 L183.808722,212.611084 L185.156777,212.011422 L186.606197,211.814377 L191.300234,212.810024 L192.254198,212.757921 L192.899332,212.608242 L193.250793,212.21131 L193.304791,211.45818 L192.651131,209.112582 L191.297392,207.813788 L187.799837,207.112762 L184.553326,206.912875 L183.202429,206.312265 L182.359302,204.76527 L181.753956,204.76527 Z M152.082531,210.259803 L151.23372,210.661472 L152.680298,212.757921 L152.883027,212.855496 L153.636157,211.712065 L153.825624,211.45818 L153.874885,211.112403 L153.727101,210.661472 L153.225962,210.259803 L152.082531,210.259803 Z M99.5386904,211.918584 L100.183824,213.466526 L107.029255,220.958985 L107.926379,221.35876 L108.424677,221.160767 L109.275382,220.206802 L112.367478,219.458409 L111.969598,219.25189 L111.569823,219.002742 L111.569823,217.904783 L111.021317,217.256807 L110.272924,216.805876 L109.619264,216.160742 L110.169664,217.359119 L110.069247,217.909519 L109.522636,218.052567 L108.678562,218.052567 L108.227631,217.655634 L107.776701,215.612236 L107.177986,214.814581 L107.476396,215.958013 L107.277456,216.512203 L106.777264,216.661881 L106.175707,216.661881 L105.624359,216.407996 L105.182902,215.764757 L104.22799,214.264181 L103.236132,213.368004 L99.8342584,211.467653 L99.2829104,210.813993 L99.5386904,211.918584 Z M135.01348,213.111276 L134.464026,212.810024 L132.815666,214.805108 L132.261477,215.904015 L132.261477,217.102391 L132.515362,217.554269 L134.612758,220.198276 L135.163158,220.599946 L135.811134,220.854778 L135.058952,222.298514 L133.91552,222.398932 L132.717144,222.201886 L131.71676,222.795864 L131.462875,223.944032 L131.864544,224.993677 L132.717144,225.74586 L134.865696,226.245105 L137.014248,227.243594 L139.013121,227.688841 L143.354749,230.490105 L145.806448,232.638657 L149.5001,234.83647 L150.399119,234.988991 L151.90159,233.587885 L153.797204,232.688866 L155.797024,232.236988 L161.989742,233.587885 L163.790623,232.984434 L165.040155,231.535961 L165.187939,230.039175 L163.639049,229.34099 L163.940301,228.590702 L164.287025,228.341553 L164.6868,228.189033 L165.138678,227.688841 L165.538453,226.893081 L165.538453,226.491411 L165.385932,225.995009 L165.291199,224.894207 L164.842163,224.246232 L162.846131,222.598819 L162.245522,221.342655 L162.389517,221.247922 L162.890656,220.90025 L162.245522,220.696574 L161.641123,220.245643 L160.691896,219.052951 L160.435168,218.052567 L157.391386,215.3053 L157.237918,216.102007 L157.188657,216.954607 L157.286232,217.805313 L157.634851,218.557495 L157.237918,218.605809 L156.287743,219.052951 L155.185994,219.052951 L154.283186,219.805133 L154.338131,220.399111 L154.784325,221.152241 L155.185994,222.34967 L148.090468,218.359503 L147.140293,218.102775 L146.185381,217.50785 L144.991741,214.855317 L144.293556,214.256602 L143.595372,213.905141 L141.695021,212.408355 L140.706953,211.910058 L135.01348,213.111276 Z" id="Page-1"></path>
        </g>
    </g>
</svg>