<?xml version="1.0" encoding="UTF-8"?>
<svg width="92px" height="92px" viewBox="0 0 92 92" version="1.1" xmlns="http://www.w3.org/2000/svg" xmlns:xlink="http://www.w3.org/1999/xlink">
    <!-- Generator: Sketch 44.1 (41455) - http://www.bohemiancoding.com/sketch -->
    <title>Intelligent</title>
    <desc>Created with Sketch.</desc>
    <defs></defs>
    <g id="Page-1" stroke="none" stroke-width="1" fill="none" fill-rule="evenodd">
        <g id="Intelligent">
            <path d="M73.6281752,37.8494186 C73.6281754,37.8478428 73.6281755,37.8462669 73.6281755,37.8446911 C73.6281755,34.4924368 72.1890896,29.4895643 70.8282382,26.5934011 C69.2208079,23.1724691 66.7241245,19.5040157 64.3151502,16.8109574 C60.8877875,12.979415 57.5681655,10.072303 52.9921213,8.44370313 C49.4221489,7.17316108 47.6401213,7 43,7 C24.7746033,7 10,21.326888 10,39 C10,48.4773313 14.248757,56.9923835 21,62.8518027 L21,85 L56,85 L56,76.0876589 C58.3279035,76.1227433 60.6605618,76 62.5,76 C68.2989899,76 73.6281755,70.8512746 73.6281755,64.5 C73.6281755,62.0664754 73.7702499,58.7818387 73.6193308,55.6555671 L81.6277217,50.6513691 L73.6281752,37.8494186 Z" id="Combined-Shape" stroke="#FFFFFF" stroke-width="3"></path>
            <g id="noun_1056444_cc" transform="translate(23.000000, 18.000000)" fill="#FFFFFF">
                <path d="M19.5142671,3.94732313 L21.2073002,1.92395928 C21.5845866,1.46862225 22.1901471,1.28263952 22.6815706,1.6032994 L23.2617673,1.98167806 L25.1291765,3.20659881 L25.7093732,3.58497747 C26.2007967,3.90884395 26.2768881,4.54375051 26.0232501,5.07604591 L24.8882205,7.46816862 C25.6110885,8.27302493 26.2325014,9.18049239 26.7334363,10.1713314 L29.3459068,9.9500761 C29.929274,9.89877052 30.4872775,10.1969842 30.6109259,10.7773786 L30.7535973,11.4603841 L31.2196569,13.6633175 L31.3654987,14.3463231 C31.4859767,14.9267175 31.0991789,15.4269469 30.544346,15.625756 L28.0713763,16.5043641 C28.0174783,17.6138473 27.8177384,18.7008842 27.4848386,19.7334091 L29.4854077,21.4457328 C29.9324445,21.8273181 30.1195025,22.4397785 29.8024551,22.9368013 L29.4251687,23.5236089 L28.2172181,25.4122956 L27.8431022,25.9991031 C27.5228843,26.496126 26.8951305,26.5730843 26.3656613,26.3165564 L24.0036582,25.168594 C23.2078693,25.8996986 22.3106252,26.5281919 21.3309487,27.0348346 L21.5497114,29.677072 C21.5972685,30.2670862 21.3024144,30.8314475 20.7285587,30.9565049 L20.0532477,31.1008018 L17.8783026,31.5721719 L17.2029916,31.7196754 C16.6291358,31.8415262 16.1313714,31.4503211 15.9379725,30.8891663 L15.0692627,28.3880192 C13.9691082,28.3335071 12.897488,28.1314913 11.8765954,27.7947985 L10.1835623,29.8181623 C9.80310544,30.2702928 9.20071539,30.4594821 8.70929193,30.1388222 L8.1290952,29.7572369 L6.26168604,28.5355228 L5.68148931,28.1571441 C5.19006585,27.8332777 5.11397447,27.1983711 5.36761239,26.6660757 L6.49947159,24.273953 C5.779774,23.4690967 5.15836111,22.5616292 4.65742623,21.5707902 L2.04495569,21.7920455 C1.46158849,21.8401445 0.903585074,21.5419308 0.779936591,20.9615364 L0.637265263,20.2785309 L0.171205593,18.0788041 L0.0253637916,17.3957985 C-0.0982846923,16.8154042 0.291683603,16.3119681 0.846516543,16.1163656 L3.31631575,15.2377575 C3.37338428,14.1250678 3.57312414,13.0412374 3.9060239,12.0087125 L1.90545484,10.2963888 C1.45524754,9.91480352 1.27136005,9.30234314 1.58840745,8.80532033 L1.96252337,8.21851275 L3.17364442,6.32982605 L3.54776034,5.74301847 C3.86797821,5.24599565 4.49256158,5.16903728 5.02203073,5.42556518 L7.38720429,6.57032096 C8.18299325,5.84242303 9.08023738,5.21392966 10.0599138,4.70728705 L9.84115113,2.06504963 L9.83798065,2.03939684 L9.83798065,2.01053745 L9.83481018,1.98167806 L9.83481018,1.95602527 L9.83481018,1.92716588 L9.83481018,1.90151309 L9.83798065,1.8726537 L9.83798065,1.84700091 L9.84115113,1.81814152 L9.84115113,1.79248873 L9.8443216,1.76683594 L9.84749207,1.73797655 L9.85383302,1.71232376 L9.8570035,1.68667097 L9.86334444,1.66101818 L9.86651492,1.63536539 L9.87285587,1.6097126 L9.87919681,1.58405981 L9.88553776,1.55840702 L9.89504918,1.53275423 L9.89504918,1.53275423 L9.90139013,1.50710144 L9.91090155,1.48144865 L9.9172425,1.45900246 L9.92675392,1.43334967 L9.93626534,1.41090348 L9.94577677,1.38525069 L9.95845866,1.36280449 L9.96797008,1.3403583 L9.98065198,1.31791211 L9.99333388,1.29546592 L10.0028453,1.27301973 L10.0155272,1.25057354 L10.0155272,1.25057354 L10.0313796,1.22812734 L10.0313796,1.22812734 L10.0440615,1.20888775 L10.0440615,1.20888775 L10.0567434,1.18644156 L10.0725957,1.16720197 L10.0884481,1.14796237 L10.0884481,1.14796237 L10.1043005,1.12872278 L10.1201528,1.10948319 L10.1360052,1.09024359 L10.1518576,1.071004 C10.1645395,1.05817761 10.1772214,1.04855781 10.1867328,1.03573142 L10.1867328,1.03573142 L10.2057556,1.01969842 L10.2057556,1.01969842 L10.2247785,1.00366543 L10.2438013,0.987632433 L10.2438013,0.987632433 L10.2628242,0.971599439 L10.2628242,0.971599439 L10.281847,0.955566445 L10.281847,0.955566445 L10.3040403,0.939533451 L10.3230632,0.926707056 L10.3230632,0.926707056 L10.3452565,0.91388066 L10.3452565,0.91388066 L10.3674498,0.901054265 L10.3896431,0.88822787 L10.3896431,0.88822787 L10.4118364,0.875401475 L10.4118364,0.875401475 L10.4340298,0.862575079 L10.4593935,0.852955283 L10.4593935,0.852955283 L10.4815869,0.843335487 L10.4815869,0.843335487 C10.4974392,0.836922289 10.5132916,0.830509091 10.5323144,0.824095894 C10.5481668,0.817682696 10.5640192,0.811269498 10.5798716,0.8080629 L10.6084058,0.798443103 L10.6084058,0.798443103 L10.6337696,0.792029906 L10.6337696,0.792029906 L10.6591334,0.785616708 L10.6591334,0.785616708 L11.3344444,0.641319762 L13.51256,0.169949737 L14.1878709,0.0224461917 C14.7585562,-0.0994045631 15.2563206,0.291800492 15.45289,0.852955283 L16.3215999,3.35089575 C17.4185839,3.40861453 18.4933745,3.61063026 19.5142671,3.94732313 Z M38.2739615,37.1067614 C38.5878384,37.2735045 38.7083164,37.6679162 38.5402813,37.9853695 L37.8015608,39.396273 C37.6366962,39.7105196 37.2467279,39.8323704 36.9360215,39.6656273 L35.6107634,38.9537623 C35.2207951,39.3930664 34.7737582,39.7650318 34.2855052,40.0632455 L34.7262011,41.5126282 C34.8276563,41.8525276 34.6374279,42.2180799 34.3013576,42.3238977 L32.792212,42.7920611 C32.4561418,42.8946723 32.0947077,42.7022763 31.9900821,42.3623769 L31.5493862,40.9129942 C30.9818714,40.9418536 30.4048451,40.890548 29.8373303,40.7494577 L29.1366556,42.0866094 C28.9717909,42.4040626 28.5818226,42.5227068 28.2679457,42.3559637 L26.8729372,41.6088261 C26.5622307,41.442083 26.4417527,41.0476713 26.6066173,40.7334247 L27.3104626,39.3930664 C26.8761076,38.9986547 26.5083327,38.5433177 26.2134786,38.0527081 L24.7804244,38.4984253 C24.4443541,38.6010365 24.0829201,38.4086405 23.9782944,38.0687411 L23.5154053,36.5424 C23.4139501,36.1992939 23.6041785,35.8369483 23.9402488,35.7311305 L25.373303,35.2854133 C25.3447687,34.7114321 25.3954963,34.1278311 25.5349972,33.5538499 L24.2129095,32.8451916 C23.8990326,32.6752419 23.7817251,32.2808302 23.9465897,31.9665835 L24.6853101,30.55568 C24.8501748,30.2414334 25.2401431,30.1195826 25.5508495,30.2863257 L26.8761076,30.9981907 C27.2660759,30.5588866 27.7162832,30.1869212 28.2013657,29.8887075 L27.7606699,28.4393248 C27.6592147,28.0994254 27.8494431,27.7338731 28.1855134,27.6280553 L29.694659,27.1598919 C30.0338997,27.0540741 30.3921632,27.2496767 30.4967889,27.5895761 L30.9374848,29.0389588 C31.5049996,29.0100994 32.0820259,29.061405 32.6495407,29.2024953 L33.3533859,27.8653436 C33.5182505,27.5478904 33.9082188,27.4292462 34.2189253,27.5959893 L35.6139338,28.3431269 C35.9246403,28.50987 36.0451183,28.9042817 35.8802536,29.2185283 L35.1764084,30.5588866 C35.6107634,30.9532983 35.9785383,31.4054287 36.2733924,31.8992449 L37.7064466,31.4535277 C38.0425169,31.3509165 38.4039509,31.5433125 38.5085765,31.883212 L38.9714657,33.409553 C39.0760914,33.7494525 38.8826925,34.1150047 38.5466222,34.2208225 L37.113568,34.6665397 C37.1421023,35.2405209 37.0913747,35.8241219 36.9518738,36.3981031 L38.2739615,37.1067614 Z M28.3884237,33.4448256 C29.2222584,31.8479394 31.1784408,31.2418922 32.7573368,32.0852277 C34.3362328,32.9317698 34.9354524,34.9102412 34.1016178,36.5071274 C33.2646126,38.1040136 31.3084302,38.7100608 29.7295342,37.8667253 C28.1506382,37.0201832 27.5514186,35.0417118 28.3884237,33.4448256 Z M14.7109991,11.2166826 C15.9823592,10.9441217 17.2410373,11.213476 18.2524185,11.877242 C19.2637997,12.5378013 20.0247134,13.5895657 20.2942037,14.8754119 C20.5668645,16.161258 20.2973742,17.4342777 19.6442566,18.4571827 C18.9911389,19.4800878 17.9512235,20.2496715 16.6798634,20.5222324 C15.4085034,20.7979999 14.1498252,20.525439 13.138444,19.8648796 C12.1270628,19.2043203 11.3661491,18.1493493 11.0934883,16.8667097 C10.823998,15.5808636 11.0903179,14.3078439 11.746606,13.2849389 C12.3997236,12.2620338 13.4396391,11.4924501 14.7109991,11.2166826 Z M17.0412975,13.7691353 C16.5086578,13.419616 15.8460288,13.2785257 15.1770588,13.4228226 C14.5080888,13.5671196 13.9595968,13.971151 13.6171856,14.5098596 C13.2716039,15.0485682 13.1321031,15.7187474 13.2747744,16.3953397 C13.4174457,17.0719321 13.8169255,17.6234671 14.3495651,17.9729863 C14.8822047,18.3225056 15.5448338,18.4635959 16.2138038,18.319299 C16.8827738,18.175002 17.4280953,17.7709706 17.7736769,17.232262 C18.1192586,16.6935534 18.2587595,16.0233742 18.1160881,15.3467819 C17.9734168,14.6701895 17.5739371,14.115448 17.0412975,13.7691353 Z M13.7757093,6.79478287 C18.7311601,5.72057227 23.6105195,8.91434469 24.6694578,13.9294652 C25.7283961,18.9413792 22.570604,23.8763347 17.6151532,24.9473387 C12.6597025,26.0183427 7.78034306,22.8245703 6.72140476,17.8126564 C5.65929599,12.8007424 8.81708804,7.86578688 13.7757093,6.79478287 Z" id="Shape"></path>
            </g>
        </g>
    </g>
</svg>